<?xml version="1.0" standalone="no" ?>
<!DOCTYPE svg PUBLIC "-//W3C//DTD SVG 1.1//EN" "http://www.w3.org/Graphics/SVG/1.1/DTD/svg11.dtd">
<svg width="83px" height="43px" viewBox="0 0 83 43" style="background-color: #ffffffff" xmlns="http://www.w3.org/2000/svg" xmlns:xlink="http://www.w3.org/1999/xlink" version="1.1" >
<text x="0" y="0" stroke="transparent" fill="#000000" transform="matrix(0.05 0 0 0.05 2.65972 25.1389)" style="font:normal normal normal 200px 'Arial'" >
H</text>
<text x="0" y="0" stroke="transparent" fill="#000000" transform="matrix(0.05 0 0 0.05 9.88194 26.9722)" style="font:normal normal normal 150px 'Arial'" >
3</text>
<text x="0" y="0" stroke="transparent" fill="#000000" transform="matrix(0.05 0 0 0.05 14.0556 25.1389)" style="font:normal normal normal 200px 'Arial'" >
C</text>
<text x="0" y="0" stroke="transparent" fill="#000000" transform="matrix(0.05 0 0 0.05 28.4555 25.1389)" style="font:normal normal normal 200px 'Arial'" >
N</text>
<text x="0" y="0" stroke="transparent" fill="#000000" transform="matrix(0.05 0 0 0.05 35.6778 21.6667)" style="font:normal normal normal 150px 'Arial'" >
+</text>
<path stroke="transparent" fill="#000000" transform="matrix(0.05 0 0 0.05 -345 -147)" d="M 7452.11,3367.33 L 7452.11,3379.33 L 7350.19,3379.33 L 7350.19,3367.33 L 7452.11,3367.33 Z " />
<text x="0" y="0" stroke="transparent" fill="#000000" transform="matrix(0.05 0 0 0.05 32.1825 11.2296)" style="font:normal normal normal 200px 'Arial'" >
CH</text>
<text x="0" y="0" stroke="transparent" fill="#000000" transform="matrix(0.05 0 0 0.05 46.627 13.0629)" style="font:normal normal normal 150px 'Arial'" >
2</text>
<text x="0" y="0" stroke="transparent" fill="#000000" transform="matrix(0.05 0 0 0.05 50.8006 11.2296)" style="font:normal normal normal 200px 'Arial'" >
COOH</text>
<path stroke="transparent" fill="#000000" transform="matrix(0.05 0 0 0.05 -345 -147)" d="M 7583.25,3193.73 L 7594.84,3196.84 L 7577.7,3260.78 L 7566.11,3257.68 L 7583.25,3193.73 Z " />
<text x="0" y="0" stroke="transparent" fill="#000000" transform="matrix(0.05 0 0 0.05 32.1825 39.0482)" style="font:normal normal normal 200px 'Arial'" >
CH</text>
<text x="0" y="0" stroke="transparent" fill="#000000" transform="matrix(0.05 0 0 0.05 46.627 40.8815)" style="font:normal normal normal 150px 'Arial'" >
2</text>
<text x="0" y="0" stroke="transparent" fill="#000000" transform="matrix(0.05 0 0 0.05 50.8006 39.0482)" style="font:normal normal normal 200px 'Arial'" >
COOH</text>
<path stroke="transparent" fill="#000000" transform="matrix(0.05 0 0 0.05 -345 -147)" d="M 7593.7,3545.57 L 7582.1,3548.67 L 7564.75,3483.91 L 7576.34,3480.8 L 7593.7,3545.57 Z " />
<text x="0" y="0" stroke="transparent" fill="#000000" transform="matrix(0.05 0 0 0.05 42.8555 25.1389)" style="font:normal normal normal 200px 'Arial'" >
H</text>
<path stroke="transparent" fill="#000000" transform="matrix(0.05 0 0 0.05 -345 -147)" d="M 7741.11,3367.33 L 7741.11,3379.33 L 7724.11,3379.33 L 7724.11,3367.33 L 7741.11,3367.33 Z " />
</svg>

